<?xml version="1.0" standalone="no"?>
<!DOCTYPE svg PUBLIC "-//W3C//DTD SVG 20010904//EN"
 "http://www.w3.org/TR/2001/REC-SVG-20010904/DTD/svg10.dtd">
<svg version="1.0" xmlns="http://www.w3.org/2000/svg"
 width="534.000000pt" height="534.000000pt" viewBox="0 0 534.000000 534.000000"
 preserveAspectRatio="xMidYMid meet">
<metadata>
Created by potrace 1.14, written by Peter Selinger 2001-2017
</metadata>
<g transform="translate(0.000000,534.000000) scale(0.100000,-0.100000)"
fill="#000000" stroke="none">
<path d="M2315 5329 c-175 -10 -368 -30 -380 -39 -5 -4 -37 -11 -70 -15 -33
-4 -91 -13 -130 -22 -38 -8 -88 -16 -109 -19 -65 -7 -205 -65 -242 -99 l-34
-32 0 -190 0 -189 28 -26 c28 -27 126 -78 151 -78 10 0 12 -17 10 -78 -5 -91
-10 -100 -135 -208 -101 -88 -110 -97 -167 -167 -59 -72 -102 -163 -127 -269
-19 -81 -20 -125 -20 -1777 l0 -1694 21 -44 c82 -169 461 -307 964 -352 236
-21 311 -24 620 -24 397 1 656 22 910 74 342 71 558 179 626 311 19 37 19 79
17 1750 -3 1701 -3 1714 -24 1783 -42 144 -135 281 -258 380 -75 62 -147 135
-157 162 -5 13 -9 52 -9 86 l0 62 60 23 c33 13 76 39 96 57 l35 33 -2 186 c-2
216 -1 215 -112 266 -122 57 -473 125 -692 134 -60 3 -166 10 -235 16 -131 11
-416 11 -635 -1z"/>
</g>
</svg>
