<svg id="visual" viewBox="0 0 900 600" width="900" height="600" xmlns="http://www.w3.org/2000/svg" xmlns:xlink="http://www.w3.org/1999/xlink" version="1.1"><rect x="0" y="0" width="900" height="600" fill="#494949"></rect><path d="M0 417L129 423L257 406L386 360L514 426L643 405L771 432L900 393L900 601L771 601L643 601L514 601L386 601L257 601L129 601L0 601Z" fill="#5f00e8"></path><path d="M0 417L129 403L257 418L386 469L514 425L643 435L771 396L900 432L900 601L771 601L643 601L514 601L386 601L257 601L129 601L0 601Z" fill="#4f03c7"></path><path d="M0 475L129 445L257 454L386 441L514 487L643 497L771 496L900 491L900 601L771 601L643 601L514 601L386 601L257 601L129 601L0 601Z" fill="#3f04a7"></path><path d="M0 539L129 526L257 538L386 498L514 514L643 495L771 514L900 509L900 601L771 601L643 601L514 601L386 601L257 601L129 601L0 601Z" fill="#300488"></path><path d="M0 537L129 547L257 565L386 540L514 561L643 569L771 568L900 559L900 601L771 601L643 601L514 601L386 601L257 601L129 601L0 601Z" fill="#23036a"></path></svg>