<svg id="visual" viewBox="0 0 960 540" width="960" height="540" xmlns="http://www.w3.org/2000/svg" xmlns:xlink="http://www.w3.org/1999/xlink" version="1.1"><path d="M0 98L22.8 92.7C45.7 87.3 91.3 76.7 137 74.8C182.7 73 228.3 80 274 82.7C319.7 85.3 365.3 83.7 411.2 87.3C457 91 503 100 548.8 94.7C594.7 89.3 640.3 69.7 686 62.5C731.7 55.3 777.3 60.7 823 66.8C868.7 73 914.3 80 937.2 83.5L960 87L960 0L937.2 0C914.3 0 868.7 0 823 0C777.3 0 731.7 0 686 0C640.3 0 594.7 0 548.8 0C503 0 457 0 411.2 0C365.3 0 319.7 0 274 0C228.3 0 182.7 0 137 0C91.3 0 45.7 0 22.8 0L0 0Z" fill="#5f00e8"></path><path d="M0 185L22.8 175C45.7 165 91.3 145 137 143.2C182.7 141.3 228.3 157.7 274 161.3C319.7 165 365.3 156 411.2 156C457 156 503 165 548.8 161.3C594.7 157.7 640.3 141.3 686 130.5C731.7 119.7 777.3 114.3 823 118.8C868.7 123.3 914.3 137.7 937.2 144.8L960 152L960 85L937.2 81.5C914.3 78 868.7 71 823 64.8C777.3 58.7 731.7 53.3 686 60.5C640.3 67.7 594.7 87.3 548.8 92.7C503 98 457 89 411.2 85.3C365.3 81.7 319.7 83.3 274 80.7C228.3 78 182.7 71 137 72.8C91.3 74.7 45.7 85.3 22.8 90.7L0 96Z" fill="#4f03c7"></path><path d="M0 309L22.8 318.8C45.7 328.7 91.3 348.3 137 360.8C182.7 373.3 228.3 378.7 274 359.8C319.7 341 365.3 298 411.2 291.8C457 285.7 503 316.3 548.8 324.3C594.7 332.3 640.3 317.7 686 299.7C731.7 281.7 777.3 260.3 823 264.8C868.7 269.3 914.3 299.7 937.2 314.8L960 330L960 150L937.2 142.8C914.3 135.7 868.7 121.3 823 116.8C777.3 112.3 731.7 117.7 686 128.5C640.3 139.3 594.7 155.7 548.8 159.3C503 163 457 154 411.2 154C365.3 154 319.7 163 274 159.3C228.3 155.7 182.7 139.3 137 141.2C91.3 143 45.7 163 22.8 173L0 183Z" fill="#3f04a7"></path><path d="M0 471L22.8 473.7C45.7 476.3 91.3 481.7 137 479.8C182.7 478 228.3 469 274 456.3C319.7 443.7 365.3 427.3 411.2 422C457 416.7 503 422.3 548.8 428.7C594.7 435 640.3 442 686 437.5C731.7 433 777.3 417 823 419.7C868.7 422.3 914.3 443.7 937.2 454.3L960 465L960 328L937.2 312.8C914.3 297.7 868.7 267.3 823 262.8C777.3 258.3 731.7 279.7 686 297.7C640.3 315.7 594.7 330.3 548.8 322.3C503 314.3 457 283.7 411.2 289.8C365.3 296 319.7 339 274 357.8C228.3 376.7 182.7 371.3 137 358.8C91.3 346.3 45.7 326.7 22.8 316.8L0 307Z" fill="#300488"></path><path d="M0 541L22.8 541C45.7 541 91.3 541 137 541C182.7 541 228.3 541 274 541C319.7 541 365.3 541 411.2 541C457 541 503 541 548.8 541C594.7 541 640.3 541 686 541C731.7 541 777.3 541 823 541C868.7 541 914.3 541 937.2 541L960 541L960 463L937.2 452.3C914.3 441.7 868.7 420.3 823 417.7C777.3 415 731.7 431 686 435.5C640.3 440 594.7 433 548.8 426.7C503 420.3 457 414.7 411.2 420C365.3 425.3 319.7 441.7 274 454.3C228.3 467 182.7 476 137 477.8C91.3 479.7 45.7 474.3 22.8 471.7L0 469Z" fill="#23036a"></path></svg>