<svg xmlns="http://www.w3.org/2000/svg" version="1.1" xmlnsXlink="http://www.w3.org/1999/xlink" xmlnsSvgjs="http://svgjs.com/svgjs" width="2000" height="7000" preserveAspectRatio="none" viewBox="0 0 2000 7000"><g mask="url(&quot;#SvgjsMask1258&quot;)" fill="none"><rect width="2000" height="7000" x="0" y="0" fill="url(#SvgjsRadialGradient1259)"></rect><path d="M772.5563995217692 2377.0287191367083L1076.480024816481 2447.195016748822 1146.6463224285949 2143.27139145411 842.7226971338828 2073.105093841996z" fill="rgba(28, 83, 142, 0.4)" class="triangle-float3"></path><path d="M1673.905,3489.957C1845.001,3486.903,2013.908,3427.046,2105.681,3282.613C2204.268,3127.457,2222.702,2928.737,2132.161,2768.753C2040.382,2606.582,1860.198,2515.495,1673.905,2519.676C1494.59,2523.7,1341.056,2634.058,1249.942,2788.552C1157.166,2945.864,1120.103,3142.223,1214.577,3298.521C1306.543,3450.67,1496.149,3493.13,1673.905,3489.957" fill="rgba(28, 83, 142, 0.4)" class="triangle-float1"></path><path d="M1038.38 2033 a665.55 665.55 0 1 0 1331.1 0 a665.55 665.55 0 1 0 -1331.1 0z" fill="rgba(28, 83, 142, 0.4)" class="triangle-float3"></path><path d="M254.31464843294 599.2166119260421L306.54366515944633 895.4220849435851 550.520121450483 546.9875951995358z" fill="rgba(28, 83, 142, 0.4)" class="triangle-float1"></path><path d="M85.43139112237738 3444.647389867346L-138.21826182918295 3730.905891705582 148.0402400090528 3954.5555446571425 371.6898929606131 3668.2970428189064z" fill="rgba(28, 83, 142, 0.4)" class="triangle-float2"></path><path d="M1013.1205507721359 2512.8172955555347L665.803480131719 2646.1398277282456 799.1260123044299 2993.4568983686627 1146.443082944847 2860.1343661959518z" fill="rgba(28, 83, 142, 0.4)" class="triangle-float2"></path><path d="M63.52 3908.33 a487.53 487.53 0 1 0 975.06 0 a487.53 487.53 0 1 0 -975.06 0z" fill="rgba(28, 83, 142, 0.4)" class="triangle-float1"></path><path d="M-222.91 2212.37 a643.97 643.97 0 1 0 1287.94 0 a643.97 643.97 0 1 0 -1287.94 0z" fill="rgba(28, 83, 142, 0.4)" class="triangle-float3"></path><path d="M935.5883599650704 6717.881528608923L991.2701902510821 7033.668880393018 1307.0575420351777 6977.987050107007 1251.375711749166 6662.199698322911z" fill="rgba(28, 83, 142, 0.4)" class="triangle-float2"></path><path d="M743.13 4381.1 a646.39 646.39 0 1 0 1292.78 0 a646.39 646.39 0 1 0 -1292.78 0z" fill="rgba(28, 83, 142, 0.4)" class="triangle-float1"></path><path d="M483.2837405452112 4679.702874033244L658.1811112867044 4336.44745683076 314.92569408422 4161.550086089266 140.02832334272676 4504.805503291751z" fill="rgba(28, 83, 142, 0.4)" class="triangle-float1"></path><path d="M-9.788922425007826 528.6191033471991L615.7041413787957 650.821384660555 443.54562171097183 120.97194289443144z" fill="rgba(28, 83, 142, 0.4)" class="triangle-float2"></path><path d="M1285.22 1066.46 a455.68 455.68 0 1 0 911.36 0 a455.68 455.68 0 1 0 -911.36 0z" fill="rgba(28, 83, 142, 0.4)" class="triangle-float1"></path><path d="M2376.789972467339 2407.9840565034674L1969.6678892753805 2054.078228912583 2022.8841448764547 2815.1061396954256z" fill="rgba(28, 83, 142, 0.4)" class="triangle-float2"></path><path d="M855.2673489346198 3758.40141005099L901.1972245483105 3239.12086967119 484.88997762963254 3424.472797901209z" fill="rgba(28, 83, 142, 0.4)" class="triangle-float1"></path><path d="M773.3829756545629 6122.592893659666L482.57657189232526 5674.790301253278 34.77397948593796 5965.596705015516 325.58038324817556 6413.399297421904z" fill="rgba(28, 83, 142, 0.4)" class="triangle-float3"></path><path d="M2097.455996737632 6126.900268550922L2086.822804430816 5822.405480446987 1782.3280163268807 5833.0386727538025 1792.9612086336967 6137.533460857739z" fill="rgba(28, 83, 142, 0.4)" class="triangle-float2"></path><path d="M1419.4673435568968 6666.072085753118L1975.2994101888958 6724.492390052615 2033.7197144883921 6168.660323420616 1477.8876478563934 6110.240019121119z" fill="rgba(28, 83, 142, 0.4)" class="triangle-float3"></path><path d="M1717.5737541416215 5831.532379167983L1973.8065604665508 5997.931909221699 2095.2894523846603 5530.382934707447z" fill="rgba(28, 83, 142, 0.4)" class="triangle-float1"></path><path d="M614.707,6940.263C682.644,6938.814,746.893,6905.722,780.178,6846.48C812.833,6788.358,808.216,6716.114,772.144,6660.049C738.778,6608.19,676.347,6587.517,614.707,6589.297C556.468,6590.978,504.814,6620.383,472.265,6668.706C434.639,6724.567,405.258,6794.164,436.543,6853.808C469.407,6916.462,543.973,6941.771,614.707,6940.263" fill="rgba(28, 83, 142, 0.4)" class="triangle-float2"></path></g><defs><mask id="SvgjsMask1258"><rect width="2000" height="7000" fill="#ffffff"></rect></mask><radialGradient cx="50%" cy="100%" r="7071.07" gradientUnits="userSpaceOnUse" id="SvgjsRadialGradient1259"><stop stop-color="#0e2a47" offset="0"></stop><stop stop-color="rgba(95, 0, 232, 1)" offset="0.23"></stop><stop stop-color="rgba(95, 0, 232, 1)" offset="0.48"></stop><stop stop-color="rgba(95, 0, 232, 1)" offset="1"></stop></radialGradient><style>
            @keyframes float1 {
                0%{transform: translate(0, 0)}
                50%{transform: translate(-10px, 0)}
                100%{transform: translate(0, 0)}
            }

            .triangle-float1 {
                animation: float1 5s infinite;
            }

            @keyframes float2 {
                0%{transform: translate(0, 0)}
                50%{transform: translate(-5px, -5px)}
                100%{transform: translate(0, 0)}
            }

            .triangle-float2 {
                animation: float2 4s infinite;
            }

            @keyframes float3 {
                0%{transform: translate(0, 0)}
                50%{transform: translate(0, -10px)}
                100%{transform: translate(0, 0)}
            }

            .triangle-float3 {
                animation: float3 6s infinite;
            }
        </style></defs></svg>