<svg id="visual" viewBox="0 0 960 540" width="960" height="540" xmlns="http://www.w3.org/2000/svg" xmlns:xlink="http://www.w3.org/1999/xlink" version="1.1"><rect x="0" y="0" width="960" height="540" fill="#5f00e8"></rect><path d="M0 299L40 289.2C80 279.3 160 259.7 240 250.2C320 240.7 400 241.3 480 250.7C560 260 640 278 720 283.5C800 289 880 282 920 278.5L960 275L960 0L920 0C880 0 800 0 720 0C640 0 560 0 480 0C400 0 320 0 240 0C160 0 80 0 40 0L0 0Z" fill="#23036a" stroke-linecap="round" stroke-linejoin="miter"></path></svg>