<svg id="visual" viewBox="0 0 960 540" width="960" height="540" xmlns="http://www.w3.org/2000/svg" xmlns:xlink="http://www.w3.org/1999/xlink" version="1.1"><rect x="0" y="0" width="960" height="540" fill="#5f00e8"></rect><path d="M0 239L40 248.8C80 258.7 160 278.3 240 287.8C320 297.3 400 296.7 480 287.3C560 278 640 260 720 254.5C800 249 880 256 920 259.5L960 263L960 541L920 541C880 541 800 541 720 541C640 541 560 541 480 541C400 541 320 541 240 541C160 541 80 541 40 541L0 541Z" fill="#23036a" stroke-linecap="round" stroke-linejoin="miter"></path></svg>