<svg xmlns="http://www.w3.org/2000/svg" version="1.1" xmlnsXlink="http://www.w3.org/1999/xlink" xmlnsSvgjs="http://svgjs.com/svgjs" width="2000" height="9000" preserveAspectRatio="none" viewBox="0 0 2000 9000"><g mask="url(&quot;#SvgjsMask1514&quot;)" fill="none"><rect width="2000" height="9000" x="0" y="0" fill="url(#SvgjsRadialGradient1515)"></rect><path d="M2087.322933004351 8833.085859711407L1808.9654088780132 8685.080538759496 1660.960087926102 8963.438062885834 1939.3176120524397 9111.443383837744z" fill="rgba(28, 83, 142, 0.4)" class="triangle-float2"></path><path d="M-28.34 3979.97 a354.09 354.09 0 1 0 708.18 0 a354.09 354.09 0 1 0 -708.18 0z" fill="rgba(28, 83, 142, 0.4)" class="triangle-float3"></path><path d="M858.2785071470422 3732.275157476177L1065.5168295112544 3493.8747386629043 827.1164106979816 3286.636416298692 619.8780883337694 3525.0368351119646z" fill="rgba(28, 83, 142, 0.4)" class="triangle-float2"></path><path d="M565.4169161098237 324.70221460515364L43.94363263837192 504.25986569720374 223.50128373042196 1025.7331491686555 744.9745672018737 846.1754980766054z" fill="rgba(28, 83, 142, 0.4)" class="triangle-float1"></path><path d="M1009 2448.45 a490.89 490.89 0 1 0 981.78 0 a490.89 490.89 0 1 0 -981.78 0z" fill="rgba(28, 83, 142, 0.4)" class="triangle-float1"></path><path d="M536.2575935805968 3525.6659537690216L930.1837498473292 3560.130026708702 784.9167811234839 2952.008755838763z" fill="rgba(28, 83, 142, 0.4)" class="triangle-float2"></path><path d="M135.81870737122497 1194.8102347802662L376.2374778717848 1688.9364023599337 651.7598826022363 1295.4496292313452z" fill="rgba(28, 83, 142, 0.4)" class="triangle-float1"></path><path d="M1452.37 4371.13 a357.7 357.7 0 1 0 715.4 0 a357.7 357.7 0 1 0 -715.4 0z" fill="rgba(28, 83, 142, 0.4)" class="triangle-float1"></path><path d="M2065.034713671711 6296.3266713368375L1859.4366355433858 5967.3009678036 1736.0090101384726 6501.924749465163z" fill="rgba(28, 83, 142, 0.4)" class="triangle-float2"></path><path d="M1894.897250992213 6757.948666624333L1774.2526403559639 7042.169558015626 2058.473531747257 7162.814168651875 2179.118142383506 6878.593277260582z" fill="rgba(28, 83, 142, 0.4)" class="triangle-float3"></path><path d="M475.37075366629284 7258.856300120116L701.9939653167935 7094.204899022868 341.70525784567 6836.595782095742z" fill="rgba(28, 83, 142, 0.4)" class="triangle-float2"></path><path d="M471.17 5043.43 a591.3 591.3 0 1 0 1182.6 0 a591.3 591.3 0 1 0 -1182.6 0z" fill="rgba(28, 83, 142, 0.4)" class="triangle-float1"></path><path d="M800.3974312774706 4537.115132561534L896.3828742892033 4873.064183102598 1112.3501210656018 4657.096936326199z" fill="rgba(28, 83, 142, 0.4)" class="triangle-float2"></path><path d="M10.9 2532.05 a441.18 441.18 0 1 0 882.36 0 a441.18 441.18 0 1 0 -882.36 0z" fill="rgba(28, 83, 142, 0.4)" class="triangle-float3"></path><path d="M-299.89 7372.07 a462.64 462.64 0 1 0 925.28 0 a462.64 462.64 0 1 0 -925.28 0z" fill="rgba(28, 83, 142, 0.4)" class="triangle-float3"></path><path d="M805.045324151509 3999.5800822073684L797.6677345827968 3576.9182588883536 382.3835008324941 4006.9576717760806z" fill="rgba(28, 83, 142, 0.4)" class="triangle-float3"></path><path d="M1517.699571761267 3595.3927006913227L1789.3254255392324 3432.1834220464048 1626.1161468943142 3160.5575682684394 1354.490293116349 3323.7668469133573z" fill="rgba(28, 83, 142, 0.4)" class="triangle-float1"></path><path d="M556.7422066235391 5642.327386735428L973.4260397612893 5649.997866390625 802.3933639204612 5328.33218649778z" fill="rgba(28, 83, 142, 0.4)" class="triangle-float3"></path><path d="M924.62 1382.75 a392.72 392.72 0 1 0 785.44 0 a392.72 392.72 0 1 0 -785.44 0z" fill="rgba(28, 83, 142, 0.4)" class="triangle-float2"></path><path d="M1388.3057611866395 8764.118320258674L1492.980073880481 9256.572243447083 1985.4339970688902 9151.897930753243 1880.7596843750484 8659.444007564833z" fill="rgba(28, 83, 142, 0.4)" class="triangle-float3"></path></g><defs><mask id="SvgjsMask1514"><rect width="2000" height="9000" fill="#ffffff"></rect></mask><radialGradient cx="50%" cy="100%" r="9055.39" gradientUnits="userSpaceOnUse" id="SvgjsRadialGradient1515"><stop stop-color="#0e2a47" offset="0"></stop><stop stop-color="rgba(95, 0, 232, 1)" offset="0.23"></stop><stop stop-color="rgba(95, 0, 232, 1)" offset="0.48"></stop><stop stop-color="rgba(95, 0, 232, 1)" offset="1"></stop></radialGradient></defs></svg>